<svg width="27" height="27" viewBox="0 0 27 27" fill="none" xmlns="http://www.w3.org/2000/svg">
<circle cx="13.5" cy="13.5" r="13.5" fill="#7CEE88" fill-opacity="0.22"/>
<path d="M10.2717 11.4457V8.70652C10.2717 7.79844 10.6428 6.92756 11.3032 6.28545C11.9637 5.64334 12.8595 5.28261 13.7935 5.28261C14.7275 5.28261 15.6233 5.64334 16.2837 6.28545C16.9442 6.92756 17.3152 7.79844 17.3152 8.70652V11.4457" stroke="#7CEE88" stroke-width="2.34783" stroke-linecap="round" stroke-linejoin="round"/>
<path d="M7.63043 12.3261C7.63043 11.8398 8.02462 11.4456 8.51087 11.4456H19.0761C19.5623 11.4456 19.9565 11.8398 19.9565 12.3261V19.3696C19.9565 19.8558 19.5623 20.25 19.0761 20.25H8.51087C8.02462 20.25 7.63043 19.8558 7.63043 19.3696V12.3261Z" stroke="#7CEE88" stroke-width="2.34783" stroke-linecap="round" stroke-linejoin="round"/>
</svg>
