<svg width="32" height="32" viewBox="0 0 32 32" fill="none" xmlns="http://www.w3.org/2000/svg">
<path d="M15.6095 9.72388C15.0888 9.20318 14.2446 9.20318 13.7239 9.72388C13.2032 10.2446 13.2032 11.0888 13.7239 11.6095L15.6095 9.72388ZM20 16L20.9428 16.9428C21.4635 16.4221 21.4635 15.5779 20.9428 15.0572L20 16ZM13.7239 20.3905C13.2032 20.9112 13.2032 21.7555 13.7239 22.2762C14.2446 22.7969 15.0888 22.7969 15.6095 22.2762L13.7239 20.3905ZM13.7239 11.6095L19.0572 16.9428L20.9428 15.0572L15.6095 9.72388L13.7239 11.6095ZM19.0572 15.0572L13.7239 20.3905L15.6095 22.2762L20.9428 16.9428L19.0572 15.0572Z" fill="#9C9C9C"/>
</svg>
