<svg width="27" height="27" viewBox="0 0 27 27" fill="none" xmlns="http://www.w3.org/2000/svg">
<circle cx="13.5" cy="13.5" r="13.5" fill="#7CEE88" fill-opacity="0.22"/>
<path d="M13.7917 5C12.0528 5 10.3531 5.51562 8.90728 6.48166C7.4615 7.4477 6.33465 8.82077 5.66923 10.4272C5.00381 12.0337 4.82971 13.8014 5.16893 15.5068C5.50816 17.2122 6.34549 18.7788 7.57502 20.0083C8.80456 21.2378 10.3711 22.0752 12.0765 22.4144C13.7819 22.7536 15.5496 22.5795 17.1561 21.9141C18.7625 21.2487 20.1356 20.1218 21.1017 18.676C22.0677 17.2303 22.5833 15.5305 22.5833 13.7917C22.5806 11.4608 21.6534 9.22621 20.0053 7.57805C18.3571 5.92989 16.1225 5.00275 13.7917 5ZM10.7138 7.30022C10.6828 7.9319 10.4681 8.5408 10.096 9.05215C9.78107 8.89231 9.40862 8.6869 8.99461 8.44713C9.50965 7.98429 10.0886 7.59802 10.7138 7.30022ZM9.14247 19.2705C7.92247 18.2379 7.08108 16.8285 6.75114 15.2647C9.6356 14.2856 10.8664 14.1377 11.346 14.1377C11.2596 14.3663 11.1156 14.5686 10.928 14.7252C10.6887 14.9287 10.5097 15.1937 10.4101 15.4916C10.3533 15.7115 10.3607 15.9431 10.4315 16.1588C10.5024 16.3746 10.6336 16.5655 10.8097 16.7089C10.8465 17.0502 10.024 18.1171 9.47975 18.8237C9.36786 18.9675 9.25517 19.1226 9.14247 19.2705ZM13.7917 20.9848C12.6344 20.9849 11.4945 20.7037 10.47 20.1656C10.5619 20.0441 10.6546 19.917 10.745 19.7996C11.8263 18.3969 12.9413 16.9495 12.1109 15.8033C12.3904 15.5484 12.6133 15.2376 12.7652 14.8911C12.917 14.5445 12.9944 14.17 12.9924 13.7917C12.9938 13.6037 12.9495 13.4182 12.8633 13.2511C12.7771 13.084 12.6517 12.9404 12.4977 12.8326C12.1276 12.5712 11.3827 12.0421 6.60648 13.6254C6.63745 12.2052 7.09101 10.8264 7.90924 9.66517C8.49908 10.0136 9.0114 10.2974 9.43819 10.5108C9.68018 10.6344 9.95173 10.6886 10.2226 10.6671C10.4936 10.6457 10.7532 10.5495 10.9727 10.3893C11.8679 9.76268 12.3314 8.15141 12.3418 6.74554C13.6174 6.48224 14.9407 6.57374 16.1678 7.01009C13.5982 8.10745 12.9924 9.51811 12.9924 10.5947C12.9924 13.0196 14.6045 13.2066 15.4701 13.3073C16.1894 13.3912 16.1894 13.3912 16.1894 13.7917C16.1766 14.4666 16.0339 15.1328 15.769 15.7538C15.4789 16.5315 15.0409 17.7079 16.6314 18.5032C16.8948 18.6337 17.1854 18.7002 17.4794 18.6974C18.2239 18.6314 18.945 18.4031 19.5918 18.0284C18.9261 18.9432 18.0538 19.6877 17.0459 20.2015C16.038 20.7152 14.923 20.9836 13.7917 20.9848ZM20.6931 15.8017C20.1524 15.9891 19.6264 16.2165 19.1194 16.4819C18.4912 16.7912 17.6312 17.2148 17.3459 17.0725C17.253 17.0273 17.1632 16.9758 17.0773 16.9183C17.1206 16.7101 17.1841 16.5067 17.2668 16.3109C17.5998 15.5121 17.7767 14.657 17.7879 13.7917C17.7879 11.967 16.3492 11.7999 15.6539 11.7192C14.8163 11.6225 14.5909 11.5961 14.5909 10.5947C14.5909 9.29352 16.625 8.45512 18.0708 8.02353C19.2544 8.89324 20.1413 10.1066 20.6105 11.4985C21.0797 12.8903 21.1086 14.3929 20.6931 15.8017Z" fill="#7CEE88"/>
</svg>
