<svg width="40" height="40" viewBox="0 0 40 40" fill="none" xmlns="http://www.w3.org/2000/svg">
<circle cx="20" cy="20" r="20" fill="#7CEE88" fill-opacity="0.22"/>
<path d="M20 31.25C25.5228 31.25 30 26.7728 30 21.25C30 15.7272 25.5228 11.25 20 11.25C14.4772 11.25 10 15.7272 10 21.25C10 26.7728 14.4772 31.25 20 31.25Z" stroke="#7CEE88" stroke-width="3" stroke-miterlimit="10" stroke-linecap="round" stroke-linejoin="round"/>
<path d="M18.5 21.25C18.5 22.0784 19.1716 22.75 20 22.75C20.8284 22.75 21.5 22.0784 21.5 21.25H18.5ZM21.5 16.25C21.5 15.4216 20.8284 14.75 20 14.75C19.1716 14.75 18.5 15.4216 18.5 16.25H21.5ZM21.5 21.25V16.25H18.5V21.25H21.5Z" fill="#7CEE88"/>
<path d="M31.25 12.5L28.75 10" stroke="#7CEE88" stroke-width="3" stroke-linecap="round" stroke-linejoin="round"/>
<path d="M17.5 7.5L22.5 7.5" stroke="#7CEE88" stroke-width="3" stroke-linecap="round" stroke-linejoin="round"/>
</svg>
